PathFileType	4	(X/Y/Z)	/home/utkubuntu/opensim/opensim_mycode/release_code/bioimitation/imitation_envs/data/02905/02905_PRE/experimental_data/task.trc
DataRate	CameraRate	NumFrames	NumMarkers	Units	OrigDataRate	OrigDataStartFrame	OrigNumFrames
100.000000	100.000000	4	43	mm	100.000000	59	478
Frame#	Time	C7			CLAV			LANK			LASI			LBHD			LELB			LFHD			LFIN			LHEE			LKNE			LMED			LMET			LMIF			LPSI			LSHO			LTHI			LTIB			LTOE			LTTU			LWRA			LWRB			RANK			RASI			RBAK			RBHD			RELB			RFHD			RFIN			RHEE			RKNE			RMED			RMET			RMIF			RPSI			RSHO			RTHI			RTIB			RTOE			RTTU			RWRA			RWRB			STRN			T10			
		X1	Y1	Z1	X2	Y2	Z2	X3	Y3	Z3	X4	Y4	Z4	X5	Y5	Z5	X6	Y6	Z6	X7	Y7	Z7	X8	Y8	Z8	X9	Y9	Z9	X10	Y10	Z10	X11	Y11	Z11	X12	Y12	Z12	X13	Y13	Z13	X14	Y14	Z14	X15	Y15	Z15	X16	Y16	Z16	X17	Y17	Z17	X18	Y18	Z18	X19	Y19	Z19	X20	Y20	Z20	X21	Y21	Z21	X22	Y22	Z22	X23	Y23	Z23	X24	Y24	Z24	X25	Y25	Z25	X26	Y26	Z26	X27	Y27	Z27	X28	Y28	Z28	X29	Y29	Z29	X30	Y30	Z30	X31	Y31	Z31	X32	Y32	Z32	X33	Y33	Z33	X34	Y34	Z34	X35	Y35	Z35	X36	Y36	Z36	X37	Y37	Z37	X38	Y38	Z38	X39	Y39	Z39	X40	Y40	Z40	X41	Y41	Z41	X42	Y42	Z42	X43	Y43	Z43	

60	0.59	-1369.72705078125	1233.52099609375	258.2630004882811	-1263.484008789062	1152.89501953125	250.0030059814452	-1216.47802734375	70.89800262451175	143.9179992675782	-1292.963989257812	821.6900024414062	157.8309936523438	-1368.526000976562	1360.784057617188	185.7839965820311	-1429.677001953125	925.2689819335938	77.29799652099607	-1227.192016601562	1380.31494140625	176.251007080078	-1471.112060546875	663.2659912109375	53.96099853515628	-1250.64697265625	32.59000015258793	193.3509979248048	-1213.77197265625	447.3900146484376	131.7940063476563	-1186.593994140625	79.98200225830082	209.9940032958986	-1135.495971679688	36.27000045776369	111.2890014648439	-1147.073974609375	87.20899963378909	159.7810058593751	-1435.163940429688	845.1610107421875	215.5800018310547	-1351.677001953125	1179.89404296875	115.1110000610351	-1233.711059570312	505.4100036621094	86.58899688720707	-1225.634033203125	249.3200073242188	89.24600219726572	-1106.162963867188	58.60599899291995	134.7120056152345	-1148.08203125	364.4289855957032	181.4539947509766	-1424.126953125	713.4849853515625	78.97499847412111	-1489.85205078125	722.3569946289062	77.31400299072268	-1530.276977539062	66.68800354003913	314.5599975585939	-1296.327026367188	822.7709960937501	379.3760070800781	-1411.0009765625	1126.965942382812	362.2059936523437	-1371.162963867188	1339.06005859375	324.0130004882811	-1342.696044921875	956.5339965820314	496.2040100097656	-1218.10302734375	1374.901000976562	312.8540039062499	-1212.922973632812	740.3900146484376	515.4959716796875	-1571.276977539062	38.18899917602545	261.5010070800783	-1401.2080078125	423.6889953613282	366.6879882812501	-1496.10302734375	59.06499862670904	246.1849975585939	-1460.514038085938	23.5389995574952	354.7709960937502	-1459.661010742188	68.42099761962898	297.6059875488283	-1433.641967773438	855.0579833984376	311.0969848632812	-1322.074951171875	1219.380004882812	379.6799926757811	-1372.259033203125	505.7709960937501	422.5390014648438	-1474.072998046875	253.5919952392579	397.7019958496095	-1424.170043945312	36.40800094604499	329.8850097656252	-1374.198974609375	334.4460144042969	310.6799926757814	-1221.824951171875	778.5839843750001	475.7000122070312	-1271.654052734375	752.7769775390626	516.9819946289062	-1241.5439453125	1031.3740234375	256.1359863281249	-1426.086059570312	963.2930297851564	271.1659851074218	
61	0.6	-1359.22705078125	1232.27001953125	257.7349853515624	-1252.953979492188	1151.488037109375	249.1900024414061	-1187.1650390625	68.5350036621094	142.9539947509767	-1281.547973632812	820.510986328125	157.2940063476562	-1358.1259765625	1359.282958984375	184.9660034179686	-1424.9990234375	925.5700073242188	78.4690017700195	-1216.824951171875	1378.912963867188	175.2469940185545	-1472.3330078125	664.4099731445312	55.97600173950198	-1219.850952148438	28.79599952697758	192.050994873047	-1203.973022460938	445.2080078125001	131.0220031738282	-1158.447021484375	79.19999694824223	209.3229980468751	-1103.845947265625	37.71400070190432	111.3909988403322	-1118.760009765625	88.07599639892581	159.4649963378907	-1424.322998046875	843.655029296875	213.8480072021484	-1341.995971679688	1178.498046875	114.720001220703	-1225.734985351562	502.989990234375	86.06700134277348	-1205.296020507812	246.3619995117188	88.0960006713868	-1076.012939453125	61.41600036621097	135.1809997558595	-1135.0419921875	364.7269897460938	181.1060028076172	-1423.613037109375	713.7540283203125	79.98799896240236	-1489.06494140625	723.7440185546875	79.94999694824222	-1529.610961914062	68.14900207519538	314.5119934082033	-1286.9560546875	821.7379760742189	378.8160095214844	-1400.150024414062	1125.822998046875	362.1249999999999	-1360.66796875	1337.735961914062	323.2359924316405	-1329.159057617188	955.8679809570314	496.5480041503906	-1207.557006835938	1373.654052734375	311.8309936523436	-1197.35400390625	741.1259765625001	515.18701171875	-1570.89697265625	40.25899887084967	261.3349914550783	-1395.337036132812	423.4530029296876	366.4689941406251	-1495.43603515625	60.10699844360357	246.1600036621095	-1460.364990234375	23.73699951171883	354.7059936523439	-1458.883056640625	68.99800109863288	297.779998779297	-1423.671997070312	853.7340087890626	309.2529907226562	-1311.126953125	1218.43603515625	378.9469909667968	-1365.691040039062	505.4270019531251	422.2500000000001	-1470.718017578125	254.3800048828126	397.4700012207032	-1423.829956054688	36.49399948120124	329.873992919922	-1369.426025390625	333.6340026855469	310.769012451172	-1207.154052734375	779.0189819335939	475.3349914550781	-1255.805053710938	753.0980224609376	517.5150146484375	-1230.97900390625	1030.083984375	255.7539978027343	-1415.906982421875	961.9799804687501	269.9909973144531	
62	0.61	-1348.6650390625	1231.053955078125	257.0650024414061	-1242.27001953125	1150.203002929688	248.3639984130858	-1158.848999023438	67.11900329589847	142.2299957275392	-1269.9580078125	819.2760009765625	156.6430053710937	-1347.635009765625	1357.881958007812	184.0700073242186	-1420.012939453125	926.0050048828125	79.56400299072263	-1206.35498046875	1377.56201171875	174.1970062255858	-1472.798950195312	665.697021484375	58.0309982299805	-1190.038940429688	26.13299942016606	191.1190032958986	-1194.511962890625	442.9079895019532	130.1820068359376	-1131.150024414062	79.24400329589848	208.7940063476564	-1073.390014648438	39.84999847412112	111.6110000610353	-1091.567016601562	89.64399719238284	159.1470031738282	-1413.326049804688	842.093017578125	211.9770050048828	-1332.107055664062	1177.141967773438	114.2229995727538	-1218.016967773438	500.2869873046875	85.286003112793	-1186.048950195312	243.8829956054688	87.19799804687509	-1047.093017578125	64.82900238037112	135.6569976806642	-1122.328979492188	365.0799865722657	180.5489959716797	-1422.534057617188	714.2080078125	81.0019989013672	-1487.712036132812	725.2589721679688	82.50099945068362	-1528.842041015625	69.81099700927741	314.6220092773439	-1277.56005859375	820.7680053710939	378.197998046875	-1389.295043945312	1124.68798828125	361.8259887695312	-1350.2900390625	1336.571044921875	322.4559936523436	-1315.807983398438	955.2659912109376	496.6480102539062	-1196.93994140625	1372.464965820312	310.7539978027343	-1182.140014648438	741.8079833984376	514.791015625	-1570.504028320312	42.61399841308599	261.321990966797	-1389.050048828125	423.2449951171876	366.2619934082032	-1494.739990234375	61.32199859619146	246.279998779297	-1460.130004882812	23.96599960327156	354.7040100097658	-1458.036987304688	69.6930007934571	298.0690002441408	-1413.574951171875	852.4130249023439	307.2059936523438	-1300.261962890625	1217.56103515625	378.1199951171874	-1358.821044921875	505.1270141601564	421.9339904785157	-1467.0439453125	255.2989959716798	397.3389892578126	-1423.433959960938	36.60200119018562	329.9320068359377	-1364.2939453125	332.8399963378907	310.9020080566407	-1192.779052734375	779.4169921875001	474.8659973144531	-1240.265991210938	753.4010009765626	517.9229736328125	-1220.171997070312	1028.928955078125	255.3690032958984	-1405.54296875	960.6890258789064	268.5830078124999	
63	0.62	-1338.026000976562	1229.901977539062	256.2529907226561	-1231.43798828125	1149.071044921875	247.522003173828	-1131.800048828125	66.59899902343753	141.7200012207032	-1258.18896484375	818.010986328125	155.8930053710937	-1337.046020507812	1356.599975585938	183.0930023193358	-1414.64697265625	926.572998046875	80.57700347900388	-1195.776000976562	1376.2900390625	173.095993041992	-1472.465942382812	667.1119995117188	60.15100097656253	-1161.444946289062	24.51099967956547	190.5679931640626	-1185.232055664062	440.5920104980469	129.3450012207032	-1104.931030273438	80.03600311279301	208.3910064697267	-1044.526000976562	42.56200027465822	111.8430023193361	-1065.649047851562	91.84600067138675	158.8300018310548	-1402.192993164062	840.5369873046875	209.9929962158203	-1321.98095703125	1175.850952148438	113.6060028076171	-1210.297973632812	497.3320007324219	84.27500152587893	-1167.965942382812	241.8710021972657	86.65499877929696	-1019.663024902344	68.72399902343753	136.0119934082032	-1109.870971679688	365.5559997558594	179.8560028076172	-1420.859985351562	714.8389892578125	82.03099822998048	-1485.788940429688	726.9099731445312	84.94599914550784	-1527.968017578125	71.69599914550788	314.8890075683595	-1268.128051757812	819.8410034179689	377.531005859375	-1378.426025390625	1123.590942382812	361.3020019531249	-1340.078002929688	1335.598999023438	321.6900024414061	-1302.708984375	954.7369995117189	496.5230102539062	-1186.254028320312	1371.366943359375	309.6249999999999	-1167.302978515625	742.4569702148439	514.301025390625	-1570.093994140625	45.27700042724615	261.4559936523439	-1382.3349609375	423.0509948730469	366.0639953613282	-1494.009033203125	62.72999954223638	246.5480041503908	-1459.802001953125	24.23299980163582	354.769989013672	-1457.137939453125	70.51999664306648	298.467987060547	-1403.31494140625	851.1270141601564	304.9869995117188	-1289.470947265625	1216.76904296875	377.2080078124999	-1351.6650390625	504.8619995117189	421.5780029296876	-1463.031982421875	256.3439941406251	397.311004638672	-1423.045043945312	36.7299995422364	330.1019897460939	-1358.76904296875	332.0650024414063	311.0809936523439	-1178.713012695312	779.8049926757814	474.302001953125	-1225.181030273438	753.6859741210939	518.1640014648438	-1209.121948242188	1027.927001953125	254.9759979248046	-1394.963989257812	959.4349975585939	266.9660034179687	
